<svg width="18" height="16" viewBox="0 0 18 16" fill="none" xmlns="http://www.w3.org/2000/svg">
<path opacity="0.4" d="M9.9 13.88C11.42 12.72 12.56 11.52 13.32 10.28C14.08 9.08 14.48 7.54 14.52 5.66C14.4 5.7 14.2 5.72 13.92 5.72C13.24 5.72 12.62 5.5 12.06 5.06C11.46 4.62 11.16 3.94 11.16 3.02C11.16 2.1 11.42 1.38 11.94 0.860002C12.46 0.380001 13.12 0.14 13.92 0.14C14.96 0.140001 15.76 0.560001 16.32 1.4C16.88 2.24 17.16 3.42 17.16 4.94C17.16 7.38 16.64 9.46 15.6 11.18C14.56 12.9 13.08 14.38 11.16 15.62L9.9 13.88ZM-2.12566e-08 13.88C1.48 12.72 2.6 11.52 3.36 10.28C4.12 9.08 4.52 7.54 4.56 5.66C4.48 5.7 4.32 5.72 4.08 5.72C3.36 5.72 2.7 5.5 2.1 5.06C1.5 4.62 1.2 3.94 1.2 3.02C1.2 2.1 1.48 1.38 2.04 0.860001C2.56 0.38 3.24 0.14 4.08 0.14C5.04 0.14 5.82 0.56 6.42 1.4C6.98 2.24 7.26 3.42 7.26 4.94C7.26 7.38 6.74 9.46 5.7 11.18C4.66 12.9 3.2 14.38 1.32 15.62L-2.12566e-08 13.88Z" fill="#CECECE"/>
</svg>
