<svg width="76" height="12" viewBox="0 0 76 12" fill="none" xmlns="http://www.w3.org/2000/svg">
<path d="M72.0717 0H75L70.8635 7.48982V12H68.2792V7.48982L64 0H67.0458L69.6133 5.22659L72.0717 0Z" fill="white"/>
<path d="M56 0H58.3738V9.8426H64V12H56V0Z" fill="white"/>
<path d="M50.7099 2.12483H44.4252V4.673H50.1943V6.75712H44.4252V9.8426H51V12H42V0H50.7099V2.12483Z" fill="white"/>
<path d="M23 12H21V0H23V12Z" fill="white"/>
<path d="M3.14255 0L5.01655 6.8711L5.42018 8.78426L5.83342 6.9118L7.42872 0H10.5521L12.2338 6.8711L12.6663 8.78426L13.0988 6.94437L14.992 0H18L14.0117 12H11.1863L9.47571 4.98236L8.97597 2.66214L8.47624 4.98236L6.76562 12H4.01708L0 0H3.14255Z" fill="white"/>
<path d="M30.4318 8.1955C30.509 8.71511 30.6606 9.10354 30.8867 9.36077C31.3002 9.82894 32.0088 10.063 33.0124 10.063C33.6135 10.063 34.1015 10.0013 34.4764 9.87781C35.1878 9.64116 35.5434 9.20129 35.5434 8.5582C35.5434 8.18264 35.367 7.89196 35.0141 7.68617C34.6612 7.48553 34.107 7.30804 33.3515 7.1537L32.0612 6.8836C30.7929 6.61608 29.9162 6.3254 29.4309 6.01158C28.6093 5.48682 28.1985 4.66624 28.1985 3.54984C28.1985 2.53119 28.5955 1.68489 29.3896 1.01093C30.1836 0.336978 31.3499 0 32.8883 0C34.1731 0 35.2677 0.318971 36.172 0.956913C37.0819 1.58971 37.5589 2.51061 37.603 3.71961H35.1547C35.1106 3.03537 34.7907 2.5492 34.1952 2.26109C33.7982 2.07074 33.3047 1.97556 32.7146 1.97556C32.0585 1.97556 31.5346 2.09904 31.1431 2.34598C30.7516 2.59293 30.5558 2.93762 30.5558 3.38006C30.5558 3.7865 30.7488 4.09003 31.1348 4.29068C31.383 4.42444 31.9123 4.58135 32.7229 4.76141L34.8238 5.23215C35.7447 5.43794 36.4395 5.71318 36.9082 6.05788C37.6361 6.59293 38 7.3672 38 8.38071C38 9.41994 37.5726 10.2842 36.7179 10.9736C35.8688 11.6579 34.6667 12 33.1117 12C31.5236 12 30.2746 11.663 29.3648 10.9891C28.4549 10.31 28 9.37878 28 8.1955H30.4318Z" fill="white"/>
</svg>
