<svg width="18" height="16" viewBox="0 0 18 16" fill="none" xmlns="http://www.w3.org/2000/svg">
<path opacity="0.4" d="M8.1 2.12C6.58 3.28 5.44 4.48 4.68 5.72C3.92 6.92 3.52 8.46 3.48 10.34C3.6 10.3 3.8 10.28 4.08 10.28C4.76 10.28 5.38 10.5 5.94 10.94C6.54 11.38 6.84 12.06 6.84 12.98C6.84 13.9 6.58 14.62 6.06 15.14C5.54 15.62 4.88 15.86 4.08 15.86C3.04 15.86 2.24 15.44 1.68 14.6C1.12 13.76 0.84 12.58 0.84 11.06C0.84 8.62 1.36 6.54 2.4 4.82C3.44 3.1 4.92 1.62 6.84 0.379998L8.1 2.12ZM18 2.12C16.52 3.28 15.4 4.48 14.64 5.72C13.88 6.92 13.48 8.46 13.44 10.34C13.52 10.3 13.68 10.28 13.92 10.28C14.64 10.28 15.3 10.5 15.9 10.94C16.5 11.38 16.8 12.06 16.8 12.98C16.8 13.9 16.52 14.62 15.96 15.14C15.44 15.62 14.76 15.86 13.92 15.86C12.96 15.86 12.18 15.44 11.58 14.6C11.02 13.76 10.74 12.58 10.74 11.06C10.74 8.62 11.26 6.54 12.3 4.82C13.34 3.1 14.8 1.62 16.68 0.379998L18 2.12Z" fill="#CECECE"/>
</svg>
