<svg width="94" height="15" viewBox="0 0 94 15" fill="none" xmlns="http://www.w3.org/2000/svg">
<path d="M89.9668 0H93.375L88.5605 9.36228V15H85.5527V9.36228L80.5723 0H84.1172L87.1055 6.53324L89.9668 0Z" fill="#004EAB"/>
<path d="M69.5633 0H72.5711V12.3033H79.7V15H69.5633V0Z" fill="#004EAB"/>
<path d="M63.068 2.65604H55.4508V5.84125H62.443V8.4464H55.4508V12.3033H63.4195V15H52.5113V0H63.068V2.65604Z" fill="#004EAB"/>
<path d="M28.6711 15H25.6828V0H28.6711V15Z" fill="#004EAB"/>
<path d="M3.8409 0L6.13134 8.58887L6.62467 10.9803L7.12974 8.63976L9.07955 0H12.897L14.9525 8.58887L15.481 10.9803L16.0096 8.68046L18.3235 0H22L17.1255 15H13.6722L11.5814 6.22795L10.9706 3.32768L10.3599 6.22795L8.26909 15H4.90977L0 0H3.8409Z" fill="#004EAB"/>
<path d="M37.9181 10.2444C38.0108 10.8939 38.1927 11.3794 38.464 11.701C38.9603 12.2862 39.8106 12.5788 41.0149 12.5788C41.7361 12.5788 42.3218 12.5016 42.7717 12.3473C43.6253 12.0514 44.0521 11.5016 44.0521 10.6977C44.0521 10.2283 43.8404 9.86495 43.4169 9.60772C42.9934 9.35691 42.3284 9.13505 41.4218 8.94212L39.8734 8.6045C38.3515 8.2701 37.2994 7.90675 36.7171 7.51447C35.7312 6.85852 35.2382 5.8328 35.2382 4.4373C35.2382 3.16399 35.7146 2.10611 36.6675 1.26367C37.6203 0.421222 39.0199 0 40.866 0C42.4078 0 43.7213 0.398714 44.8065 1.19614C45.8983 1.98714 46.4706 3.13826 46.5236 4.64952H43.5856C43.5327 3.79421 43.1489 3.1865 42.4342 2.82637C41.9578 2.58842 41.3656 2.46945 40.6576 2.46945C39.8701 2.46945 39.2415 2.62379 38.7717 2.93248C38.3019 3.24116 38.067 3.67203 38.067 4.22508C38.067 4.73312 38.2986 5.11254 38.7618 5.36334C39.0596 5.53055 39.6948 5.72669 40.6675 5.95177L43.1886 6.54019C44.2936 6.79743 45.1274 7.14148 45.6898 7.57235C46.5633 8.24116 47 9.209 47 10.4759C47 11.7749 46.4872 12.8553 45.4615 13.717C44.4425 14.5723 43 15 41.134 15C39.2283 15 37.7295 14.5788 36.6377 13.7363C35.5459 12.8875 35 11.7235 35 10.2444H37.9181Z" fill="#004EAB"/>
</svg>
